<?xml version="1.0" standalone="no"?>
<!DOCTYPE svg PUBLIC "-//W3C//DTD SVG 20010904//EN"
 "http://www.w3.org/TR/2001/REC-SVG-20010904/DTD/svg10.dtd">
<svg version="1.0" xmlns="http://www.w3.org/2000/svg"
 width="686.000000pt" height="386.000000pt" viewBox="0 0 686.000000 386.000000"
 preserveAspectRatio="xMidYMid meet">

<g transform="translate(0.000000,386.000000) scale(0.100000,-0.100000)"
fill="#000000" stroke="none">
<path d="M0 1930 l0 -1930 3430 0 3430 0 0 1930 0 1930 -2144 0 -2144 0 -6
-31 c-3 -19 -10 -28 -17 -23 -6 3 -9 17 -6 30 l4 24 -1273 0 -1274 0 0 -1930z
m2400 1828 c0 -5 -7 -3 -15 6 -8 8 -15 18 -15 22 0 3 7 1 15 -6 8 -7 15 -17
15 -22z m35 22 c3 -5 1 -10 -4 -10 -6 0 -11 5 -11 10 0 6 2 10 4 10 3 0 8 -4
11 -10z m120 -10 c3 -5 -1 -10 -9 -10 -9 0 -16 5 -16 10 0 6 4 10 9 10 6 0 13
-4 16 -10z m-75 -21 c0 -5 -4 -9 -10 -9 -5 0 -10 7 -10 16 0 8 5 12 10 9 6 -3
10 -10 10 -16z m-79 -29 c13 -7 19 -7 19 0 0 11 22 9 31 -2 3 -4 19 -4 37 1
18 5 32 6 32 1 0 -9 -30 -24 -42 -22 -5 1 -8 -3 -8 -9 0 -8 -5 -7 -15 1 -22
18 -58 18 -73 0 -10 -13 -11 -13 -6 3 4 12 1 17 -12 17 -16 0 -17 2 -4 10 19
12 17 12 41 0z m64 -58 c-3 -3 -11 0 -18 7 -9 10 -8 11 6 5 10 -3 15 -9 12
-12z m287 -854 c-8 -8 -12 -46 -12 -106 0 -65 -3 -93 -11 -90 -15 5 -102 148
-95 156 3 3 6 0 6 -6 0 -7 7 -12 16 -12 9 0 12 5 8 13 -4 6 -4 9 1 5 10 -10
33 -48 41 -70 13 -36 24 -17 24 40 0 50 11 82 29 82 3 0 0 -5 -7 -12z m104
-54 c-22 -66 -21 -74 14 -74 28 0 29 2 24 33 -4 24 -3 28 5 17 7 -9 11 -11 11
-3 0 7 -7 16 -16 21 -14 8 -15 10 -1 15 12 5 21 -9 38 -61 12 -37 26 -73 32
-79 7 -10 1 -13 -25 -13 -33 0 -34 2 -30 30 4 29 3 30 -36 30 -33 0 -41 -4
-45 -22 -4 -13 -1 -26 6 -30 7 -5 1 -8 -15 -8 -26 0 -38 14 -20 22 4 2 20 42
36 91 16 48 31 85 34 83 2 -3 -3 -26 -12 -52z m218 50 c-15 -6 -6 -176 9 -186
7 -4 -8 -8 -33 -8 -34 0 -41 3 -32 12 17 17 16 175 0 180 -7 3 5 5 27 5 22 1
35 -1 29 -3z m74 -32 c-35 -32 -50 -62 -30 -62 5 0 17 -18 27 -40 10 -23 26
-45 34 -50 12 -7 9 -9 -14 -10 -26 0 -34 7 -56 50 l-27 50 29 37 c17 20 28 41
26 47 -3 6 8 11 23 12 l27 1 -39 -35z m113 26 c0 -10 2 -10 6 0 11 27 21 9 20
-36 -2 -46 -1 -48 23 -44 14 3 28 10 32 16 4 6 8 -4 8 -22 0 -20 -4 -31 -10
-27 -6 4 -8 10 -5 14 2 5 -7 6 -20 3 -22 -4 -25 -10 -25 -43 0 -37 2 -39 30
-39 17 0 33 7 39 17 13 23 22 13 14 -16 -4 -17 -11 -21 -27 -17 -11 3 -43 6
-71 7 -27 0 -44 3 -37 6 8 3 12 32 12 93 0 61 -4 90 -12 93 -8 3 -6 6 5 6 9 1
17 -5 18 -11z m109 -13 c-1 -18 -2 -18 -13 -3 -7 9 -24 18 -37 21 -16 3 -11 4
13 4 30 -1 37 -5 37 -22z m93 18 c-7 -2 -13 -9 -13 -14 0 -4 7 -6 15 -3 12 5
14 -6 11 -68 -3 -88 -1 -98 30 -98 32 0 46 30 42 98 -3 54 -5 58 -38 74 -30
15 -31 18 -12 18 30 0 78 -25 86 -45 3 -9 6 -39 6 -66 0 -73 -29 -99 -110 -99
-57 0 -60 1 -50 19 14 27 13 164 -2 179 -9 9 -5 12 18 11 16 0 23 -3 17 -6z
m389 -93 c16 -47 34 -91 40 -97 8 -10 3 -13 -24 -13 -29 0 -34 3 -34 23 1 18
-5 22 -37 25 -27 2 -39 -1 -44 -13 -3 -10 0 -21 8 -26 10 -6 3 -9 -21 -9 -19
0 -30 4 -24 8 9 6 53 113 71 175 12 38 37 10 65 -73z m118 80 c0 -5 6 -10 13
-10 11 0 13 -19 12 -85 l-3 -85 28 0 c18 0 35 8 44 21 14 21 15 21 14 -10 l-1
-32 -69 2 c-60 2 -86 11 -59 21 6 2 11 41 12 86 1 63 -2 86 -12 93 -11 7 -11
9 4 9 9 0 17 -4 17 -10z m47 4 c-3 -3 -12 -4 -19 -1 -8 3 -5 6 6 6 11 1 17 -2
13 -5z m138 -5 c11 -17 -1 -21 -15 -4 -8 9 -8 15 -2 15 6 0 14 -5 17 -11z m27
-94 c-3 -90 -2 -95 17 -95 12 0 30 9 41 20 l20 20 0 -25 c0 -24 -2 -25 -72
-25 -56 0 -69 3 -60 12 7 7 12 40 12 77 0 53 4 69 22 88 12 13 22 23 22 23 1
0 0 -43 -2 -95z m-1561 -71 c7 -8 2 -10 -18 -6 -16 3 -22 7 -15 9 8 3 13 29
14 76 l2 72 3 -70 c2 -38 8 -74 14 -81z m228 -198 l0 -31 -16 23 c-8 12 -22
22 -29 22 -19 0 -20 -176 -1 -183 6 -3 -8 -5 -33 -4 -24 0 -39 2 -32 5 8 2 12
31 12 93 0 76 -2 89 -16 89 -9 0 -23 -8 -30 -17 -12 -16 -13 -15 -14 10 l0 28
80 -2 80 -2 -1 -31z m108 10 c-8 -8 -14 -27 -13 -43 1 -25 5 -28 39 -31 l37
-3 0 40 c0 22 -5 42 -12 44 -7 3 7 6 32 6 34 1 41 -2 32 -11 -17 -17 -16 -175
1 -181 6 -3 -4 -6 -23 -6 l-35 -1 0 47 0 48 -35 0 c-32 0 -35 -3 -38 -33 -2
-18 2 -40 9 -48 10 -12 5 -14 -27 -14 -30 0 -35 3 -26 12 16 16 16 160 0 176
-9 9 -3 12 31 12 37 0 41 -2 28 -14z m305 -11 c6 -27 -6 -34 -16 -10 -3 9 -18
15 -36 15 -27 0 -30 -3 -30 -34 0 -39 21 -53 45 -30 13 14 15 12 15 -17 0 -26
-3 -30 -12 -21 -7 7 -20 12 -30 12 -14 0 -18 -8 -18 -40 0 -38 2 -40 30 -40
18 0 33 6 36 15 10 24 24 17 24 -11 0 -25 -1 -26 -66 -22 l-67 3 2 94 c2 69
-1 96 -11 102 -8 5 16 9 58 9 69 0 72 -1 76 -25z m285 12 c2 -3 3 -16 0 -29
l-4 -23 -8 23 c-4 12 -16 22 -26 22 -17 0 -19 -9 -19 -89 0 -62 4 -91 13 -94
6 -3 -10 -5 -38 -5 -27 0 -42 2 -32 5 15 4 17 17 17 94 0 71 -3 89 -14 89 -8
0 -22 -10 -30 -22 -16 -22 -16 -22 -16 11 l0 34 76 -6 c41 -3 78 -8 81 -10z
m116 -5 c-17 -11 -30 -182 -14 -182 6 0 11 -3 11 -8 0 -4 -19 -6 -41 -4 -27 3
-37 7 -28 13 19 11 26 154 9 174 -11 13 -6 15 31 15 25 0 39 -4 32 -8z m133
-42 c7 -25 15 -58 19 -75 7 -28 9 -24 29 45 l22 75 39 3 c35 3 37 2 25 -13
-17 -20 -15 -162 2 -182 8 -10 2 -13 -26 -13 -32 0 -35 2 -28 18 5 9 7 49 3
87 l-6 70 -28 -87 c-16 -49 -32 -88 -37 -88 -4 0 -18 38 -30 85 -13 46 -26 83
-30 80 -3 -2 -8 -30 -9 -61 -1 -32 -4 -61 -7 -65 -2 -4 0 -10 6 -14 18 -11 11
-20 -15 -20 -25 0 -34 10 -15 17 6 2 13 41 17 86 5 66 3 86 -8 93 -10 7 -2 9
26 7 38 -3 40 -5 51 -48z m312 40 c15 0 22 -6 22 -20 0 -23 -15 -27 -24 -5 -3
9 -18 15 -36 15 -28 0 -30 -2 -30 -40 0 -36 3 -40 25 -40 14 0 25 5 25 10 0 6
4 10 8 10 5 0 7 -13 4 -30 -4 -26 -6 -28 -19 -14 -24 23 -38 11 -41 -34 -3
-40 -2 -42 26 -42 19 0 35 8 45 23 l16 22 0 -27 1 -28 -77 0 c-43 0 -73 4 -67
8 7 4 14 43 17 87 5 66 3 83 -11 99 -17 19 -16 19 38 13 30 -4 65 -7 78 -7z
m-644 -876 c3 -8 2 -12 -3 -9 -5 3 -13 0 -16 -6 -4 -5 2 -13 12 -15 13 -4 19
-13 18 -27 -1 -17 -10 -23 -38 -28 -20 -3 -37 -2 -37 3 0 4 -8 9 -17 9 -16 1
-17 2 -1 6 10 2 15 10 11 19 -3 8 -2 25 1 39 5 19 13 25 35 25 17 0 31 -6 35
-16z m-156 -50 c25 -5 31 -12 36 -45 5 -33 10 -39 31 -39 15 0 25 6 25 14 0
20 61 16 77 -4 16 -21 31 -4 35 40 3 31 6 35 35 38 29 3 33 0 42 -35 6 -21 11
-51 11 -67 0 -20 11 -39 40 -65 22 -20 37 -40 34 -44 -16 -16 -40 -5 -76 34
l-39 41 20 -49 20 -50 -41 3 c-22 1 -63 -5 -90 -14 l-51 -16 -29 33 c-22 24
-28 39 -24 56 3 13 2 26 -4 30 -18 11 -23 -43 -6 -67 22 -32 20 -38 -14 -38
-25 0 -30 4 -30 25 0 14 -4 25 -8 25 -5 0 -13 37 -19 83 -7 45 -15 90 -18 100
-8 19 -3 20 43 11z m-702 -158 c18 -19 18 -26 -2 -26 -15 0 -15 -3 1 -26 14
-21 15 -28 4 -35 -19 -11 -29 -2 -29 26 0 33 -21 24 -42 -18 -22 -43 -30 -80
-33 -152 -1 -34 -8 -71 -15 -84 -6 -13 -13 -45 -14 -71 l-2 -48 43 -13 c24 -6
46 -9 50 -6 6 7 -46 31 -59 29 -5 -1 -8 5 -8 13 0 19 -2 19 42 -4 21 -10 34
-21 31 -25 -4 -3 -2 -6 3 -6 6 0 19 -7 30 -16 19 -15 19 -15 -2 -5 -21 10
-104 -4 -114 -20 -3 -5 -203 -37 -445 -73 -242 -36 -464 -69 -493 -74 l-53 -9
3 76 3 76 95 12 c182 23 486 65 648 89 89 13 167 24 172 24 5 0 15 -21 23 -47
18 -58 21 -29 7 67 -5 35 -5 69 -1 75 5 5 11 44 14 86 7 98 25 156 55 180 29
22 68 25 88 5z m1152 -48 c16 -16 15 -28 -3 -28 -8 0 -15 5 -15 10 0 6 -4 10
-10 10 -5 0 -7 -8 -4 -17 5 -15 3 -15 -10 1 -9 11 -16 23 -16 28 0 12 45 9 58
-4z m-983 -79 c15 -76 17 -89 11 -89 -12 0 -32 56 -35 95 -2 29 0 37 8 29 6
-6 14 -21 16 -35z m795 14 c0 -14 -33 -34 -52 -31 -30 4 -33 23 -6 35 21 9 58
7 58 -4z m-196 1 c9 -3 16 -13 16 -21 0 -8 3 -12 8 -10 4 3 7 -8 7 -24 0 -25
-3 -28 -24 -24 -13 2 -28 10 -33 17 -4 8 -8 -7 -8 -37 0 -64 9 -97 24 -88 6 3
-2 -6 -17 -22 -23 -24 -30 -26 -37 -15 -7 11 -5 16 7 19 14 3 15 16 10 101 -7
113 -2 123 47 104z m318 -17 c4 -7 10 -31 14 -54 3 -24 11 -43 16 -43 5 0 7 8
5 18 -3 9 -2 37 3 62 l7 45 2 -37 c1 -26 6 -38 15 -38 21 0 62 -58 90 -126
l24 -59 80 -9 c73 -8 81 -11 85 -32 2 -13 0 -21 -4 -18 -5 3 -9 -3 -9 -14 0
-14 -9 -21 -32 -26 -124 -23 -159 -35 -179 -60 -11 -14 -30 -31 -42 -37 -21
-11 -21 -10 2 15 27 29 18 36 -11 9 -19 -17 -19 -16 -13 7 l6 25 -358 34
c-197 18 -374 37 -393 42 -38 10 -150 -7 -150 -22 0 -5 -8 -9 -17 -9 -15 0
-16 -2 -3 -10 17 -11 10 -13 -14 -4 -9 3 -14 10 -11 14 3 4 -4 10 -15 13 -15
4 -20 0 -20 -14 0 -11 -7 -31 -16 -44 -9 -13 -13 -29 -9 -35 3 -5 -1 -10 -9
-10 -9 0 -16 5 -16 11 0 5 -4 7 -10 4 -5 -3 -10 -4 -10 0 0 3 9 9 20 13 19 7
19 8 -5 35 -14 15 -34 27 -45 27 -28 0 -32 15 -10 35 13 12 27 15 49 10 19 -4
31 -3 31 4 0 16 40 24 55 11 12 -10 18 -10 29 -1 8 7 27 11 43 10 45 -3 160 3
141 8 -22 5 -22 4 -1 49 l18 36 132 -7 133 -7 1 23 c1 19 2 20 6 5 3 -10 0
-23 -6 -29 -15 -15 -14 -52 2 -65 18 -15 130 -18 135 -4 2 7 21 12 43 12 28 0
39 4 39 15 0 12 -15 15 -76 15 -41 0 -73 4 -70 9 3 5 36 6 72 3 66 -5 66 -5
59 19 -15 49 -33 85 -49 102 -16 16 -16 17 16 17 18 0 48 -4 66 -9 37 -11 47
2 51 66 2 24 98 24 113 0z m-858 -209 c8 -32 7 -40 -3 -34 -11 7 -21 56 -11
56 4 0 10 -10 14 -22z m-54 -14 c0 -26 -7 -26 -40 1 -8 7 -24 15 -35 18 -11 2
1 5 28 6 44 1 47 -1 47 -25z m618 -21 c-10 -2 -28 -2 -40 0 -13 2 -5 4 17 4
22 1 32 -1 23 -4z m1047 -38 c99 -8 257 -21 350 -29 94 -8 244 -20 335 -26 91
-6 180 -13 198 -16 l32 -5 0 -79 c0 -69 -2 -80 -17 -80 -10 0 -87 7 -173 15
-85 8 -253 24 -374 35 -120 11 -222 23 -227 26 -6 3 -7 -5 -3 -20 5 -20 2 -26
-10 -26 -9 0 -16 -8 -17 -17 0 -13 -3 -11 -11 7 l-11 25 -8 -25 c-6 -17 -7 -7
-4 32 3 33 0 68 -7 82 -12 28 -42 35 -51 12 -6 -14 -67 -29 -127 -31 -19 -1
-39 -3 -45 -4 -29 -9 -55 0 -55 18 0 11 -5 23 -10 26 -6 3 -8 16 -4 29 3 12 1
34 -5 48 -10 25 -9 26 27 22 20 -3 118 -11 217 -19z m-425 -77 c0 -19 -2 -20
-10 -8 -13 19 -13 30 0 30 6 0 10 -10 10 -22z m-20 -24 c0 -11 -5 -14 -16 -10
-9 3 -34 6 -55 6 -24 0 -38 4 -34 10 3 6 28 10 56 10 38 0 49 -3 49 -16z m210
-38 c1 5 7 -2 14 -15 19 -35 10 -51 -29 -51 -40 0 -51 12 -29 31 13 10 17 10
24 0 5 -9 10 -9 14 -3 3 6 -1 17 -9 25 -19 20 -20 33 0 17 8 -7 15 -9 15 -4z
m268 8 c31 -9 27 -24 -7 -24 -45 0 -91 12 -85 21 6 10 58 12 92 3z m-390 -55
c10 0 5 -5 -11 -11 -34 -12 -49 -1 -40 30 6 23 6 23 20 2 8 -11 22 -20 31 -21z
m-141 -135 c-3 -3 -12 -4 -19 -1 -8 3 -5 6 6 6 11 1 17 -2 13 -5z m-625 -66
c-7 -7 -12 -8 -12 -2 0 14 12 26 19 19 2 -3 -1 -11 -7 -17z m-637 -208 c-3 -5
-11 -10 -16 -10 -6 0 -7 5 -4 10 3 6 11 10 16 10 6 0 7 -4 4 -10z m580 -100
c-28 -12 -45 -12 -45 0 0 6 15 10 33 9 27 0 29 -2 12 -9z m667 -112 c-12 -12
-35 -1 -27 12 3 5 13 6 21 3 10 -4 12 -9 6 -15z m-47 2 c3 -6 -5 -10 -19 -10
-14 0 -28 5 -31 10 -3 6 5 10 19 10 14 0 28 -4 31 -10z"/>
<path d="M2667 2719 c4 -13 8 -18 11 -10 2 7 -1 18 -6 23 -8 8 -9 4 -5 -13z"/>
<path d="M3040 2790 c0 -5 5 -10 11 -10 5 0 7 5 4 10 -3 6 -8 10 -11 10 -2 0
-4 -4 -4 -10z"/>
<path d="M3787 2737 c-22 -69 -22 -67 12 -67 29 0 30 1 19 30 -6 17 -8 44 -4
60 10 50 -9 33 -27 -23z"/>
<path d="M3400 1530 c0 -5 7 -10 15 -10 8 0 15 -6 15 -14 0 -7 9 -16 21 -19
18 -5 18 -3 7 11 -33 42 -58 56 -58 32z"/>
<path d="M3620 1193 c0 -23 43 -122 51 -117 5 3 2 18 -6 34 -8 16 -15 35 -15
43 0 16 -29 57 -30 40z"/>
<path d="M3550 1121 c0 -7 24 -38 52 -69 29 -31 54 -59 56 -62 2 -2 6 1 10 7
8 12 73 53 85 53 4 0 -12 -18 -34 -40 -23 -22 -46 -40 -51 -40 -5 0 -6 -4 -3
-10 9 -14 77 -12 97 4 15 11 15 15 3 33 -12 17 -11 22 5 36 20 17 25 82 8 93
-5 3 -23 -4 -41 -15 -31 -20 -27 -25 18 -22 18 1 18 0 -3 -9 -12 -5 -25 -9
-29 -9 -3 1 -10 -6 -14 -14 -6 -9 -18 -13 -35 -9 -23 4 -26 2 -21 -14 6 -18 6
-18 -6 0 -7 11 -20 26 -30 35 -10 9 -29 27 -42 40 -14 13 -25 18 -25 12z"/>
<path d="M3500 960 c12 -8 11 -10 -7 -10 -34 0 -36 -17 -2 -24 17 -3 28 -10
25 -15 -9 -15 11 -16 189 -13 110 2 164 6 155 12 -8 5 -25 10 -37 10 -13 0
-23 5 -23 10 0 6 -50 10 -131 10 -128 0 -130 0 -124 -21 4 -13 3 -19 -3 -15
-5 3 -12 19 -15 36 -4 20 -12 30 -24 30 -15 0 -16 -2 -3 -10z"/>
<path d="M3820 960 c0 -5 7 -10 15 -10 8 0 15 5 15 10 0 6 -7 10 -15 10 -8 0
-15 -4 -15 -10z"/>
<path d="M4526 838 c10 -14 21 -24 23 -22 3 3 -6 15 -18 27 l-24 22 19 -27z"/>
</g>
</svg>
